# xmcd CD database file
#
# Track frame offsets:
#	150
#	10951
#	24033
#	37645
#	50192
#	60956
#	69024
#	80910
#	90571
#	108125
#	119459
#	131534
#
# Disc length: 1883 seconds
#
# Revision: 0
# Processed by: cddbd v1.4PL0 Copyright (c) Steve Scherf et al.
# Submitted via: CDex 1.40Release
#
DISCID=8807590c
DTITLE=Silver and Gold - Waiting
DYEAR=1900
DGENRE=Country
TTITLE0=Waiting
TTITLE1=Whiskey Drinkin'
TTITLE2=18 Days
TTITLE3=Leaving
TTITLE4=In Love With You
TTITLE5=Just Cuntry
TTITLE6=Would You Love Me
TTITLE7=Take This Heart
TTITLE8=Long Way Home
TTITLE9=Mercy, Mercy
TTITLE10=I've Got To Stop Cheating
TTITLE11=Make Up Your Mind
EXTD=ID3G: 2
EXTT0=
EXTT1=
EXTT2=
EXTT3=
EXTT4=
EXTT5=
EXTT6=
EXTT7=
EXTT8=
EXTT9=
EXTT10=
EXTT11=
PLAYORDER=
